<?xml version="1.0" standalone="no"?>
<!DOCTYPE svg PUBLIC "-//W3C//DTD SVG 20010904//EN"
 "http://www.w3.org/TR/2001/REC-SVG-20010904/DTD/svg10.dtd">
<svg version="1.0" xmlns="http://www.w3.org/2000/svg"
 width="19" height="19" viewBox="0 0 512.000000 512.000000"
 preserveAspectRatio="xMidYMid meet">

<g transform="translate(0.000000,512.000000) scale(0.100000,-0.100000)"
fill="#000000" stroke="none">
<path d="M2200 5104 c-162 -43 -292 -159 -351 -313 -15 -37 -24 -90 -28 -156
l-6 -100 -562 -3 -563 -2 0 -485 0 -485 125 0 c112 0 125 -2 125 -17 1 -10 96
-810 213 -1778 l212 -1760 1195 0 1195 0 212 1760 c117 968 212 1768 213 1778
0 15 13 17 125 17 l125 0 0 485 0 485 -562 2 -563 3 -6 100 c-9 153 -56 255
-163 352 -61 56 -136 96 -221 118 -83 21 -633 21 -715 -1z m685 -316 c70 -38
105 -105 105 -198 l0 -60 -430 0 -430 0 0 63 c1 100 55 187 128 203 15 3 32 7
37 9 6 2 134 3 285 2 235 -2 279 -4 305 -19z m1235 -738 l0 -170 -1560 0
-1560 0 0 170 0 170 1560 0 1560 0 0 -170z m-256 -512 c-2 -13 -90 -738 -194
-1613 -105 -875 -193 -1596 -195 -1602 -6 -19 -1824 -19 -1830 -1 -2 7 -90
728 -195 1603 -104 875 -192 1600 -194 1613 l-3 22 1307 0 1307 0 -3 -22z"/>
<path d="M1785 3221 l-79 -6 2 -45 c19 -391 134 -2546 136 -2548 2 -1 70 1
152 5 l149 8 3 45 c1 25 -27 597 -63 1272 -36 675 -65 1239 -65 1253 0 25 -1
25 -77 23 -43 -1 -114 -4 -158 -7z"/>
<path d="M2407 3224 c-4 -4 -7 -589 -7 -1301 l0 -1293 160 0 160 0 -2 1298 -3
1297 -151 3 c-82 1 -153 -1 -157 -4z"/>
<path d="M3100 3224 c1 -5 -30 -586 -67 -1292 -42 -806 -63 -1285 -57 -1291 5
-5 75 -11 157 -15 l147 -7 1 43 c0 24 31 606 68 1293 37 688 65 1253 62 1257
-9 10 -311 22 -311 12z"/>
</g>
</svg>
